# xmcd
#
# Track frame offsets: 
#        150
#        12595
#        26635
#        37265
#        49060
#        65457
#        80693
#        95306
#        105782
#        117798
#        132124
#        146123
#        157733
#        169668
#        180417
#        193532
#        207295
#        222525
#        235848
#        248963
#        262884
#        274602
#        288724
#        304929
#
# Disc length: 4262 seconds
#
# Revision: 0
# Processed by: cddbd v1.5.2PL0 Copyright (c) Steve Scherf et al.
# Submitted via: ExactAudioCopy v0.99pb4
#
DISCID=5610a418
DTITLE=Various Artist - Number One Country Hits of the 70's
DYEAR=1989
DGENRE=Country
TTITLE0=Elvis Presley - Moody Blue
TTITLE1=Dolly Parton - I Will Always Love You
TTITLE2=Willie Nelson - Blue Eyes Cryin' in the Rain
TTITLE3=Crystal Gayle - Don't It Make My Brown Eyes Blue
TTITLE4=Oak Ridge Boys - I'll Be True to You
TTITLE5=Anne Murray - Shadows in the Moonlight
TTITLE6=Don Williams - Tulsa Time
TTITLE7=Barbara Mandrell - Sleeping Single in a Double Bed
TTITLE8=Conway Twitty - (Lying Here With) Linda On My Mind
TTITLE9=Charlie Rich and Janie Fricke - On My Knees
TTITLE10=Loretta Lynn - She's Got You
TTITLE11=Freddy Fender - Before the Next Teardrop Falls
TTITLE12=Gatlin Brothers - All the Gold in California
TTITLE13=Ronnie Milsap - Pure Love
TTITLE14=Loretta Lynn and Conway Twitty - Feelings
TTITLE15=George Jones and Tammy Wynette - Golden Ring
TTITLE16=John Conlee - Rose Colored Glasses
TTITLE17=Charley Pride - All His Children
TTITLE18=Waylon Jennings - Amanda
TTITLE19=Tanya Tucker - What's Your Mama's Name?
TTITLE20=Moe Bandy - Just Good Ole Boys
TTITLE21=George Jones - The Grand Tour
TTITLE22=Kenny Rogers - Kenny Rogers
TTITLE23=Glen Campbell - Rhinestone Cowboy
EXTD=
EXTT0=
EXTT1=
EXTT2=
EXTT3=
EXTT4=
EXTT5=
EXTT6=
EXTT7=
EXTT8=
EXTT9=
EXTT10=
EXTT11=
EXTT12=
EXTT13=
EXTT14=
EXTT15=
EXTT16=
EXTT17=
EXTT18=
EXTT19=
EXTT20=
EXTT21=
EXTT22=
EXTT23=
PLAYORDER=
